<svg width="57" height="57" viewBox="0 0 57 57" fill="none" xmlns="http://www.w3.org/2000/svg">
<path d="M49.3159 40.2738L41.2209 44.0985C40.1032 42.0196 37.9593 40.6966 35.5998 40.63L28.127 40.4246C26.9438 40.3908 25.7827 40.0911 24.7307 39.5477L23.9703 39.1536C20.0769 37.1242 15.4363 37.1292 11.547 39.1667L11.5944 37.4441C11.61 36.8734 11.1605 36.3981 10.5898 36.3824L2.39539 36.1569C1.82471 36.1412 1.3499 36.5908 1.33426 37.1615L0.839263 55.1438C0.823621 55.7144 1.2732 56.1898 1.84388 56.2054L10.0383 56.431H10.0665C10.6266 56.431 11.0848 55.9854 11.0999 55.4258L11.1236 54.5655L13.2525 53.4257C14.088 52.9761 15.0649 52.8691 15.9777 53.1275L28.6901 56.6954C28.7123 56.7019 28.7345 56.707 28.7572 56.712C29.6761 56.9043 30.6126 57.0006 31.5511 57.0001C33.5391 57.0011 35.504 56.5727 37.3109 55.7432C37.3553 55.723 37.3982 55.6993 37.439 55.6726L55.8709 43.7503C56.33 43.4531 56.4784 42.8502 56.2094 42.3738C54.841 39.9458 51.806 39.0209 49.3159 40.2738ZM2.93378 54.1679L3.37175 38.2514L9.49989 38.4199L9.06191 54.3369L2.93378 54.1679ZM36.3799 53.8975C34.135 54.9107 31.6278 55.1902 29.2149 54.6972L16.5368 51.1384C15.1098 50.7352 13.5825 50.9023 12.2771 51.6041L11.1892 52.1869L11.4804 41.6043C14.9277 39.3115 19.3488 39.0759 23.0201 40.9888L23.7805 41.3828C25.1096 42.0691 26.5754 42.4475 28.0705 42.4909L35.5438 42.6963C37.6429 42.7568 39.4256 44.2514 39.8514 46.3081L28.7199 46.0008C28.1492 45.9851 27.6744 46.4352 27.6582 47.0054C27.6426 47.5761 28.0927 48.0514 28.6629 48.067L40.9474 48.4051H40.9762C41.5357 48.4046 41.9934 47.959 42.0085 47.4C42.0211 46.9509 41.9878 46.5013 41.9086 46.0593L50.2115 42.1362C50.2196 42.1326 50.2276 42.1286 50.2357 42.1246C51.4134 41.5287 52.8373 41.728 53.8061 42.6246L36.3799 53.8975Z" fill="black"/>
<path d="M35.474 7.83984C33.7366 5.83385 31.7817 4.02725 29.645 2.45334C29.456 2.32097 29.2307 2.24997 28.9999 2.24997C28.7691 2.24997 28.5439 2.32097 28.3548 2.45334C26.2183 4.02726 24.2633 5.83386 22.526 7.83984C18.6656 12.2794 16.625 16.9599 16.625 21.375C16.625 24.6571 17.9288 27.8047 20.2496 30.1254C22.5703 32.4462 25.7179 33.75 29 33.75C32.2821 33.75 35.4297 32.4462 37.7504 30.1254C40.0712 27.8047 41.375 24.6571 41.375 21.375C41.375 16.9599 39.3345 12.2794 35.474 7.83984ZM29 29.25C28.7016 29.25 28.4155 29.1315 28.2045 28.9205C27.9935 28.7095 27.875 28.4234 27.875 28.125C27.875 27.8266 27.9935 27.5405 28.2045 27.3295C28.4155 27.1185 28.7016 27 29 27C30.4913 26.9983 31.9211 26.4052 32.9756 25.3506C34.0302 24.2961 34.6233 22.8663 34.625 21.375C34.625 21.0766 34.7435 20.7905 34.9545 20.5795C35.1655 20.3685 35.4516 20.25 35.75 20.25C36.0484 20.25 36.3345 20.3685 36.5455 20.5795C36.7565 20.7905 36.875 21.0766 36.875 21.375C36.8726 23.4628 36.0422 25.4645 34.5658 26.9408C33.0895 28.4172 31.0878 29.2476 29 29.25Z" fill="#337CBA"/>
</svg>
