<svg width="69" height="80" viewBox="0 0 69 80" fill="none" xmlns="http://www.w3.org/2000/svg">
<path fill-rule="evenodd" clip-rule="evenodd" d="M31.5381 0.897222C32.9704 -0.299093 35.0536 -0.299072 36.486 0.897273C46.9767 9.65942 58.9388 9.59161 63.569 9.56536C63.8001 9.56405 64.013 9.56284 64.2064 9.56284C65.2401 9.56284 66.2305 9.97748 66.9559 10.7139C67.6812 11.4503 68.0809 12.4469 68.0653 13.4804C67.8462 28.0019 67.2641 38.3661 66.1219 45.9622C64.9804 53.5534 63.2301 58.7562 60.4096 62.676C57.5692 66.6235 53.9185 68.8648 50.0314 71.0131C49.3578 71.3853 48.671 71.7578 47.9681 72.1391C44.5559 73.99 40.7632 76.0473 36.2615 79.2766C34.9169 80.2411 33.1071 80.2411 31.7625 79.2766C27.2651 76.0505 23.4773 73.9942 20.0704 72.1447C19.364 71.7612 18.6739 71.3866 17.9973 71.0123C14.1131 68.8635 10.4673 66.6215 7.63244 62.6726C4.81827 58.7526 3.07406 53.55 1.93689 45.9602C0.798928 38.365 0.219557 28.0014 0.000439891 13.4804C-0.0151556 12.4469 0.384493 11.4503 1.10986 10.7139C1.83522 9.97748 2.82566 9.56284 3.85931 9.56284C4.05056 9.56284 4.26126 9.56405 4.49028 9.56536C9.08243 9.59164 21.0461 9.6601 31.5381 0.897222ZM7.78793 17.2574C8.04697 29.6342 8.61041 38.4098 9.5703 44.8165C10.6287 51.8807 12.12 55.6881 13.9026 58.1713C15.6645 60.6255 17.9769 62.18 21.7337 64.2583C22.3456 64.5968 22.991 64.9468 23.6688 65.3143C26.5582 66.8812 30.036 68.7671 34.012 71.4419C37.9935 68.7636 41.4766 66.8764 44.3709 65.3082C45.0456 64.9426 45.6883 64.5944 46.2979 64.2575C50.0595 62.1786 52.3774 60.6235 54.1444 58.1678C55.9313 55.6844 57.427 51.8773 58.4891 44.8144C59.4523 38.4087 60.0182 29.634 60.2777 17.2581C54.3363 17.0666 43.873 15.8399 34.012 8.74132C24.1628 15.8313 13.7144 17.0636 7.78793 17.2574Z" fill="#3375BB" fill-opacity="0.3"/>
</svg>
