<svg width="70" height="70" viewBox="0 0 70 70" fill="none" xmlns="http://www.w3.org/2000/svg">
<path d="M58.6435 0H26.6524V43.171H69.8234V11.1799C69.8234 4.98545 64.838 0 58.6435 0ZM16.6815 0H11.1799C4.98545 0 0 4.98545 0 11.1799V16.6815H16.6815V0ZM0 26.6524H16.6815V43.334H0V26.6524ZM53.3185 69.8234H58.8201C65.0146 69.8234 70 64.838 70 58.6435V53.3185H53.3185V69.8234ZM26.6524 53.3185H43.334V70H26.6524V53.3185ZM0 53.3185V58.8201C0 65.0146 4.98545 70 11.1799 70H16.6815V53.3185H0Z" fill-opacity="0.5" fill="#1D2028"/>
</svg>
