<svg width="20" height="20" viewBox="0 0 20 20" fill="none" xmlns="http://www.w3.org/2000/svg">
<path d="M16.7553 0H7.61498V12.3346H19.9495V3.19426C19.9495 1.42441 18.5251 0 16.7553 0ZM4.76616 0H3.19426C1.42441 0 0 1.42441 0 3.19426V4.76616H4.76616V0ZM0 7.61498H4.76616V12.3811H0V7.61498ZM15.2338 19.9495H16.8057C18.5756 19.9495 20 18.5251 20 16.7553V15.2338H15.2338V19.9495ZM7.61498 15.2338H12.3811V20H7.61498V15.2338ZM0 15.2338V16.8057C0 18.5756 1.42441 20 3.19426 20H4.76616V15.2338H0Z" fill="#1D2028"/>
</svg>
