<svg width="72" height="72" viewBox="0 0 72 72" fill="none" xmlns="http://www.w3.org/2000/svg">
<mask id="mask0" mask-type="alpha" maskUnits="userSpaceOnUse" x="0" y="0" width="72" height="72">
<path d="M71.9951 19.8593C71.9908 19.1393 71.9825 18.4194 71.9629 17.6996C71.9207 16.1309 71.8281 14.5488 71.5491 12.9975C71.2662 11.4239 70.8041 9.95938 70.076 8.52961C69.3602 7.1243 68.4252 5.83836 67.3095 4.7235C66.1942 3.60864 64.9079 2.67421 63.502 1.95885C62.0708 1.23055 60.6047 0.768667 59.0293 0.485824C57.4779 0.207261 55.8954 0.114902 54.3267 0.072524C53.6064 0.0530386 52.8861 0.0448251 52.1657 0.0403688C51.3105 0.0351261 50.4552 0.035563 49.5999 0.035563L39.6696 0H32.2425L22.4879 0.035563C21.6309 0.035563 20.774 0.0351261 19.9171 0.0403688C19.1952 0.0448251 18.4736 0.0530386 17.752 0.072524C16.1796 0.114902 14.5934 0.207349 13.0384 0.48626C11.4609 0.769017 9.99263 1.23072 8.55946 1.9585C7.15067 2.67395 5.86158 3.60846 4.74384 4.7235C3.62627 5.83827 2.68949 7.12395 1.97238 8.529C1.24225 9.95947 0.779324 11.4249 0.495695 12.9994C0.216435 14.55 0.123902 16.1316 0.0813489 17.6996C0.061951 18.4194 0.0535627 19.1393 0.0491938 19.8593C0.0439511 20.7143 0 21.7762 0 22.631V32.2505V39.7571L0.044388 49.581C0.044388 50.437 0.0440385 51.2929 0.0491938 52.1489C0.0535627 52.8699 0.061951 53.5908 0.0814363 54.3116C0.123902 55.8823 0.21661 57.4667 0.496132 59.02C0.779674 60.5957 1.24252 62.0624 1.97203 63.494C2.68923 64.9013 3.62619 66.1889 4.74384 67.3053C5.86149 68.4218 7.15023 69.3574 8.55876 70.0738C9.99281 70.8031 11.4618 71.2656 13.0402 71.5488C14.5946 71.8278 16.1802 71.9203 17.752 71.9627C18.4736 71.9822 19.1953 71.9905 19.9172 71.9949C20.7741 72 21.6309 72 22.4879 72H32.3306H39.7762H49.5999C50.4552 72 51.3105 72 52.1657 71.9949C52.8861 71.9905 53.6064 71.9822 54.3267 71.9627C55.896 71.9202 57.4791 71.8276 59.0312 71.5484C60.6056 71.2652 62.071 70.8029 63.5014 70.0741C64.9075 69.3578 66.1941 68.4219 67.3095 67.3053C68.425 66.1891 69.36 64.9016 70.0758 63.4946C70.8043 62.0623 71.2664 60.5949 71.5495 59.0182C71.8282 57.4655 71.9207 55.8817 71.963 54.3116C71.9825 53.5907 71.9908 52.8698 71.9951 52.1489C72 51.2929 72 50.437 72 49.581C72 49.581 72 39.9306 72 39.7571V32.2426C72 32.1145 72 22.4237 72 22.4237C72 21.569 72 20.7142 71.9951 19.8593Z" fill="#8E8E93"/>
</mask>
<g mask="url(#mask0)">
<path d="M71.9951 19.8593C71.9908 19.1393 71.9825 18.4194 71.9629 17.6996C71.9207 16.1309 71.8281 14.5488 71.5491 12.9975C71.2662 11.4239 70.8041 9.95938 70.076 8.52961C69.3602 7.1243 68.4252 5.83836 67.3095 4.7235C66.1942 3.60864 64.9079 2.67421 63.502 1.95885C62.0708 1.23055 60.6047 0.768667 59.0293 0.485824C57.4779 0.207261 55.8954 0.114902 54.3267 0.072524C53.6064 0.0530386 52.8861 0.0448251 52.1657 0.0403688C51.3105 0.0351261 50.4552 0.035563 49.5999 0.035563L39.6696 0H32.2425L22.4879 0.035563C21.6309 0.035563 20.774 0.0351261 19.9171 0.0403688C19.1952 0.0448251 18.4736 0.0530386 17.752 0.072524C16.1796 0.114902 14.5934 0.207349 13.0384 0.48626C11.4609 0.769017 9.99263 1.23072 8.55946 1.9585C7.15067 2.67395 5.86158 3.60846 4.74384 4.7235C3.62627 5.83827 2.68949 7.12395 1.97238 8.529C1.24225 9.95947 0.779324 11.4249 0.495695 12.9994C0.216435 14.55 0.123902 16.1316 0.0813489 17.6996C0.061951 18.4194 0.0535627 19.1393 0.0491938 19.8593C0.0439511 20.7143 0 21.7762 0 22.631V32.2505V39.7571L0.044388 49.581C0.044388 50.437 0.0440385 51.2929 0.0491938 52.1489C0.0535627 52.8699 0.061951 53.5908 0.0814363 54.3116C0.123902 55.8823 0.21661 57.4667 0.496132 59.02C0.779674 60.5957 1.24252 62.0624 1.97203 63.494C2.68923 64.9013 3.62619 66.1889 4.74384 67.3053C5.86149 68.4218 7.15023 69.3574 8.55876 70.0738C9.99281 70.8031 11.4618 71.2656 13.0402 71.5488C14.5946 71.8278 16.1802 71.9203 17.752 71.9627C18.4736 71.9822 19.1953 71.9905 19.9172 71.9949C20.7741 72 21.6309 72 22.4879 72H32.3306H39.7762H49.5999C50.4552 72 51.3105 72 52.1657 71.9949C52.8861 71.9905 53.6064 71.9822 54.3267 71.9627C55.896 71.9202 57.4791 71.8276 59.0312 71.5484C60.6056 71.2652 62.071 70.8029 63.5014 70.0741C64.9075 69.3578 66.1941 68.4219 67.3095 67.3053C68.425 66.1891 69.36 64.9016 70.0758 63.4946C70.8043 62.0623 71.2664 60.5949 71.5495 59.0182C71.8282 57.4655 71.9207 55.8817 71.963 54.3116C71.9825 53.5907 71.9908 52.8698 71.9951 52.1489C72 51.2929 72 50.437 72 49.581C72 49.581 72 39.9306 72 39.7571V32.2426C72 32.1145 72 22.4237 72 22.4237C72 21.569 72 20.7142 71.9951 19.8593Z" fill="url(#paint0_linear)"/>
<g style="mix-blend-mode:hard-light" filter="url(#filter0_ddiii)">
<rect x="11.0769" y="18" width="49.8462" height="36" rx="6" fill="url(#paint1_linear)"/>
</g>
<mask id="mask1" mask-type="alpha" maskUnits="userSpaceOnUse" x="11" y="19" width="50" height="34">
<rect x="60.9231" y="52.6155" width="49.8462" height="33.2308" transform="rotate(-180 60.9231 52.6155)" fill="url(#paint2_linear)"/>
</mask>
<g mask="url(#mask1)">
<g style="mix-blend-mode:hard-light" filter="url(#filter1_ddi)">
<path d="M60.9231 52.6155L11.0769 52.6155L29.4207 35.1452C31.7097 32.9652 32.8542 31.8752 34.1582 31.4546C35.3557 31.0684 36.6444 31.0684 37.8419 31.4546C39.1458 31.8752 40.2903 32.9652 42.5793 35.1452L60.9231 52.6155Z" fill="url(#paint3_linear)"/>
</g>
</g>
<mask id="mask2" mask-type="alpha" maskUnits="userSpaceOnUse" x="11" y="19" width="50" height="34">
<rect x="11.0769" y="19.3845" width="49.8462" height="33.2308" fill="url(#paint4_linear)"/>
</mask>
<g mask="url(#mask2)">
<g style="mix-blend-mode:hard-light" filter="url(#filter2_ddi)">
<path d="M11.0769 19.3845H60.9231L40.3862 38.9434C38.8602 40.3968 38.0972 41.1235 37.2279 41.4038C36.4295 41.6614 35.5704 41.6614 34.7721 41.4038C33.9028 41.1235 33.1398 40.3968 31.6138 38.9434L11.0769 19.3845Z" fill="url(#paint5_linear)"/>
</g>
</g>
<path opacity="0.1" d="M13.0402 71.5488L13.1285 71.0566C11.5919 70.781 10.1705 70.3325 8.78544 69.6282C7.42378 68.9356 6.17777 68.031 5.0972 66.9516C4.01662 65.8722 3.11079 64.6273 2.41753 63.267C1.71297 61.8843 1.26423 60.4653 0.988228 58.9315L0.496196 59.02L0.988228 58.9315C0.715398 57.4154 0.623496 55.8605 0.581254 54.2981C0.561902 53.5822 0.553543 52.8652 0.549185 52.1459C0.544347 51.3426 0.544366 50.5391 0.544385 49.7339L0.544393 49.581L0.544383 49.5787L0.5 39.7571V39.756V32.2505V22.631C0.5 22.2106 0.51082 21.7374 0.522483 21.2573L0.525038 21.1525C0.53585 20.7094 0.546723 20.2638 0.549184 19.8624L0.549185 19.8624C0.553543 19.1441 0.561901 18.4281 0.581165 17.7132L13.0402 71.5488ZM13.0402 71.5488L13.1285 71.0566C14.6458 71.329 16.2019 71.4207 17.7655 71.4629C18.4822 71.4822 19.1999 71.4905 19.9202 71.4949C20.7754 71.5 21.6307 71.5 22.4879 71.5H32.3306H39.7762H49.5999C50.4555 71.5 51.3092 71.5 52.1627 71.4949C52.8815 71.4905 53.5979 71.4822 54.3131 71.4629C55.8742 71.4206 57.4277 71.3288 58.9427 71.0563C60.4751 70.7807 61.893 70.3325 63.2745 69.6286C64.6336 68.9362 65.8774 68.0315 66.9558 66.952L66.9559 66.9519C68.0343 65.8727 68.9382 64.6281 69.6301 63.2679C70.3337 61.8846 70.7817 60.4648 71.0573 58.9298C71.3294 57.4142 71.4211 55.8599 71.4632 54.2981C71.4826 53.5822 71.4908 52.8652 71.4951 52.1459C71.5 51.2917 71.5 50.4372 71.5 49.581H72C71.5 49.581 71.5 49.581 71.5 49.5809V49.5806V49.58V49.5792V49.5783V49.577V49.5756V49.574V49.5722V49.5701V49.5678V49.5653V49.5626V49.5597V49.5566V49.5533V49.5498V49.546V49.5421V49.538V49.5336V49.5291V49.5243V49.5194V49.5142V49.5088V49.5033V49.4975V49.4916V49.4854V49.4791V49.4726V49.4658V49.4589V49.4518V49.4445V49.437V49.4293V49.4215V49.4134V49.4052V49.3967V49.3881V49.3793V49.3703V49.3612V49.3518V49.3423V49.3326V49.3227V49.3126V49.3024V49.292V49.2814V49.2706V49.2597V49.2486V49.2373V49.2258V49.2142V49.2024V49.1904V49.1783V49.166V49.1535V49.1409V49.1281V49.1151V49.102V49.0887V49.0753V49.0617V49.0479V49.034V49.0199V49.0056V48.9913V48.9767V48.962V48.9471V48.9321V48.917V48.9017V48.8862V48.8706V48.8548V48.8389V48.8229V48.8067V48.7903V48.7738V48.7572V48.7404V48.7235V48.7065V48.6893V48.6719V48.6545V48.6368V48.6191V48.6012V48.5832V48.5651V48.5468V48.5284V48.5098V48.4911V48.4723V48.4534V48.4343V48.4152V48.3958V48.3764V48.3568V48.3372V48.3174V48.2974V48.2774V48.2572V48.2369V48.2165V48.196V48.1753V48.1546V48.1337V48.1127V48.0916V48.0704V48.0491V48.0276V48.0061V47.9845V47.9627V47.9408V47.9188V47.8968V47.8746V47.8523V47.8299V47.8074V47.7848V47.7621V47.7393V47.7164V47.6934V47.6704V47.6472V47.6239V47.6005V47.5771V47.5535V47.5299V47.5061V47.4823V47.4584V47.4343V47.4103V47.3861V47.3618V47.3374V47.313V47.2885V47.2639V47.2392V47.2144V47.1896V47.1647V47.1397V47.1146V47.0894V47.0642V47.0389V47.0135V46.9881V46.9625V46.9369V46.9113V46.8855V46.8597V46.8339V46.8079V46.7819V46.7558V46.7297V46.7035V46.6772V46.6509V46.6245V46.5981V46.5716V46.545V46.5184V46.4917V46.465V46.4382V46.4114V46.3845V46.3575V46.3305V46.3035V46.2764V46.2492V46.222V46.1948V46.1675V46.1402V46.1128V46.0853V46.0579V46.0304V46.0028V45.9752V45.9476V45.9199V45.8922V45.8645V45.8367V45.8089V45.781V45.7531V45.7252V45.6973V45.6693V45.6413V45.6132V45.5852V45.5571V45.5289V45.5008V45.4726V45.4444V45.4162V45.388V45.3597V45.3314V45.3031V45.2748V45.2464V45.2181V45.1897V45.1613V45.1329V45.1045V45.076V45.0476V45.0191V44.9907V44.9622V44.9337V44.9052V44.8767V44.8482V44.8197V44.7912V44.7626V44.7341V44.7056V44.6771V44.6485V44.62V44.5915V44.5629V44.5344V44.5059V44.4774V44.4489V44.4204V44.3919V44.3634V44.3349V44.3065V44.278V44.2496V44.2211V44.1927V44.1643V44.1359V44.1076V44.0792V44.0509V44.0225V43.9942V43.966V43.9377V43.9095V43.8813V43.8531V43.8249V43.7968V43.7687V43.7406V43.7125V43.6845V43.6565V43.6285V43.6006V43.5727V43.5448V43.517V43.4891V43.4614V43.4336V43.406V43.3783V43.3507V43.3231V43.2956V43.2681V43.2406V43.2132V43.1858V43.1585V43.1312V43.104V43.0768V43.0497V43.0226V42.9956V42.9686V42.9417V42.9148V42.888V42.8612V42.8345V42.8079V42.7813V42.7547V42.7282V42.7018V42.6754V42.6491V42.6229V42.5967V42.5706V42.5446V42.5186V42.4927V42.4668V42.441V42.4153V42.3897V42.3641V42.3386V42.3132V42.2878V42.2626V42.2373V42.2122V42.1872V42.1622V42.1373V42.1125V42.0877V42.0631V42.0385V42.014V41.9896V41.9653V41.941V41.9169V41.8928V41.8689V41.845V41.8212V41.7975V41.7738V41.7503V41.7269V41.7035V41.6803V41.6571V41.6341V41.6111V41.5883V41.5655V41.5429V41.5203V41.4978V41.4755V41.4532V41.4311V41.4091V41.3871V41.3653V41.3436V41.322V41.3004V41.2791V41.2578V41.2366V41.2155V41.1946V41.1738V41.153V41.1324V41.112V41.0916V41.0713V41.0512V41.0312V41.0113V40.9916V40.9719V40.9524V40.933V40.9137V40.8946V40.8756V40.8567V40.8379V40.8193V40.8008V40.7824V40.7642V40.7461V40.7281V40.7103V40.6926V40.6751V40.6576V40.6403V40.6232V40.6062V40.5893V40.5726V40.556V40.5396V40.5233V40.5072V40.4911V40.4753V40.4596V40.444V40.4286V40.4134V40.3983V40.3833V40.3685V40.3538V40.3394V40.325V40.3108V40.2968V40.2829V40.2692V40.2557V40.2423V40.2291V40.216V40.2031V40.1903V40.1778V40.1654V40.1531V40.141V40.1291V40.1174V40.1058V40.0944V40.0832V40.0722V40.0613V40.0506V40.04V40.0297V40.0195V40.0095V39.9997V39.99V39.9806V39.9713V39.9622V39.9533V39.9445V39.936V39.9276V39.9195V39.9115V39.9037V39.896V39.8886V39.8814V39.8743V39.8675V39.8608V39.8544V39.8481V39.842V39.8362V39.8305V39.825V39.8197V39.8146V39.8097V39.8051V39.8006V39.7963V39.7922V39.7884V39.7847V39.7812V39.778V39.775V39.7721V39.7695V39.7671V39.7649V39.7629V39.7612V39.7596V39.7583V39.7571V32.2426V32.2417V32.2407V32.2394V32.2379V32.2361V32.2342V32.232V32.2297V32.2271V32.2243V32.2213V32.2181V32.2147V32.211V32.2072V32.2032V32.1989V32.1945V32.1898V32.185V32.1799V32.1747V32.1692V32.1635V32.1577V32.1516V32.1454V32.1389V32.1323V32.1255V32.1184V32.1112V32.1038V32.0962V32.0884V32.0804V32.0723V32.0639V32.0554V32.0467V32.0378V32.0287V32.0194V32.0099V32.0003V31.9905V31.9805V31.9703V31.9599V31.9494V31.9387V31.9278V31.9168V31.9055V31.8941V31.8826V31.8708V31.8589V31.8468V31.8346V31.8222V31.8096V31.7968V31.7839V31.7708V31.7576V31.7442V31.7306V31.7169V31.703V31.689V31.6748V31.6604V31.6459V31.6313V31.6164V31.6015V31.5863V31.571V31.5556V31.54V31.5243V31.5084V31.4924V31.4762V31.4599V31.4434V31.4268V31.4101V31.3932V31.3762V31.359V31.3417V31.3242V31.3066V31.2889V31.271V31.253V31.2349V31.2166V31.1982V31.1797V31.161V31.1422V31.1233V31.1043V31.0851V31.0658V31.0464V31.0268V31.0071V30.9873V30.9674V30.9473V30.9272V30.9069V30.8865V30.8659V30.8453V30.8245V30.8037V30.7827V30.7616V30.7403V30.719V30.6976V30.676V30.6544V30.6326V30.6107V30.5887V30.5666V30.5444V30.5221V30.4997V30.4772V30.4546V30.4319V30.4091V30.3862V30.3632V30.3401V30.3169V30.2936V30.2702V30.2467V30.2231V30.1995V30.1757V30.1518V30.1279V30.1039V30.0797V30.0555V30.0312V30.0069V29.9824V29.9579V29.9332V29.9085V29.8837V29.8588V29.8339V29.8089V29.7838V29.7586V29.7333V29.708V29.6826V29.6571V29.6315V29.6059V29.5802V29.5544V29.5286V29.5027V29.4767V29.4506V29.4245V29.3984V29.3721V29.3458V29.3195V29.293V29.2666V29.24V29.2134V29.1868V29.16V29.1333V29.1064V29.0796V29.0526V29.0256V28.9986V28.9715V28.9444V28.9172V28.8899V28.8626V28.8353V28.8079V28.7805V28.753V28.7255V28.698V28.6704V28.6427V28.615V28.5873V28.5596V28.5318V28.504V28.4761V28.4482V28.4203V28.3923V28.3643V28.3363V28.3082V28.2801V28.252V28.2239V28.1957V28.1675V28.1393V28.111V28.0828V28.0545V28.0261V27.9978V27.9695V27.9411V27.9127V27.8843V27.8558V27.8274V27.7989V27.7705V27.742V27.7135V27.685V27.6565V27.6279V27.5994V27.5708V27.5423V27.5137V27.4852V27.4566V27.428V27.3994V27.3709V27.3423V27.3137V27.2851V27.2565V27.228V27.1994V27.1708V27.1423V27.1137V27.0852V27.0566V27.0281V26.9996V26.971V26.9425V26.914V26.8856V26.8571V26.8286V26.8002V26.7718V26.7434V26.715V26.6866V26.6583V26.63V26.6016V26.5734V26.5451V26.5169V26.4887V26.4605V26.4323V26.4042V26.3761V26.348V26.3199V26.2919V26.2639V26.236V26.2081V26.1802V26.1523V26.1245V26.0967V26.069V26.0413V26.0136V25.986V25.9584V25.9309V25.9034V25.876V25.8486V25.8212V25.7939V25.7666V25.7394V25.7122V25.6851V25.658V25.631V25.604V25.5771V25.5503V25.5235V25.4967V25.47V25.4434V25.4168V25.3903V25.3638V25.3374V25.3111V25.2848V25.2586V25.2325V25.2064V25.1804V25.1544V25.1285V25.1027V25.077V25.0513V25.0257V25.0002V24.9747V24.9493V24.924V24.8988V24.8736V24.8486V24.8236V24.7986V24.7738V24.749V24.7244V24.6998V24.6753V24.6508V24.6265V24.6022V24.578V24.554V24.53V24.5061V24.4822V24.4585V24.4349V24.4113V24.3879V24.3645V24.3413V24.3181V24.2951V24.2721V24.2492V24.2264V24.2038V24.1812V24.1588V24.1364V24.1141V24.092V24.0699V24.048V24.0262V24.0044V23.9828V23.9613V23.9399V23.9186V23.8975V23.8764V23.8555V23.8346V23.8139V23.7933V23.7728V23.7525V23.7322V23.7121V23.6921V23.6722V23.6525V23.6329V23.6133V23.594V23.5747V23.5556V23.5366V23.5177V23.499V23.4804V23.4619V23.4435V23.4253V23.4072V23.3893V23.3715V23.3538V23.3363V23.3189V23.3016V23.2845V23.2675V23.2507V23.234V23.2175V23.2011V23.1848V23.1687V23.1527V23.1369V23.1212V23.1057V23.0903V23.0751V23.0601V23.0451V23.0304V23.0158V23.0013V22.987V22.9729V22.9589V22.9451V22.9314V22.9179V22.9046V22.8914V22.8784V22.8656V22.8529V22.8404V22.828V22.8158V22.8038V22.792V22.7803V22.7688V22.7575V22.7463V22.7353V22.7245V22.7139V22.7034V22.6932V22.6831V22.6731V22.6634V22.6538V22.6444V22.6352V22.6262V22.6174V22.6087V22.6003V22.592V22.5839V22.576V22.5683V22.5608V22.5534V22.5463V22.5393V22.5326V22.526V22.5197V22.5135V22.5075V22.5017V22.4962V22.4908V22.4856V22.4806V22.4759V22.4713V22.4669V22.4628V22.4588V22.4551V22.4515V22.4482V22.4451V22.4422V22.4394V22.437V22.4347V22.4326V22.4307V22.4291V22.4277V22.4265V22.4255V22.4247V22.4242V22.4238C71.5 22.4238 71.5 22.4237 72 22.4237M13.0402 71.5488L72 22.4237M72 22.4237H71.5C71.5 21.5688 71.5 20.7154 71.4951 19.8623C71.4908 19.1439 71.4826 18.4279 71.4631 17.7131C71.4211 16.1527 71.3293 14.6001 71.057 13.086L71.5491 12.9975L71.057 13.086C70.7816 11.5543 70.3337 10.1373 69.6305 8.75651C68.9386 7.39815 68.0347 6.15496 66.9561 5.07718L67.3095 4.7235L66.9561 5.07713C65.8778 3.99933 64.6342 3.09597 63.2753 2.40447C61.893 1.70109 60.4745 1.25328 58.941 0.977953C57.4267 0.706056 55.8736 0.614498 54.3132 0.572342L54.3267 0.072524L54.3131 0.572341C53.5979 0.552991 52.8815 0.544806 52.1627 0.540359L72 22.4237ZM49.5999 0.535563H49.5982L39.6696 0.5H39.6687H32.2434H32.2425L22.4897 0.53556L22.4879 0.535566L22.3045 0.535559C21.5085 0.53553 20.7143 0.535501 19.9202 0.540359L49.5999 0.535563ZM49.5999 0.535563L49.7829 0.535559M49.5999 0.535563L49.7829 0.535559M17.7655 0.572342L17.7654 0.572343C16.2013 0.6145 14.6446 0.706147 13.1266 0.978407L13.1266 0.978416C11.5909 1.25369 10.1701 1.70137 8.78585 2.40431M17.7655 0.572342L0.581167 17.7131C0.623499 16.1533 0.715229 14.6013 0.987775 13.088C1.26385 11.5555 1.71264 10.1377 2.41773 8.75631L2.41773 8.7563C3.11088 7.39821 4.01649 6.15525 5.09695 5.07749L5.09696 5.07748C6.17758 3.99948 7.4239 3.09597 8.78585 2.40431M17.7655 0.572342C18.4821 0.552991 19.1998 0.544806 19.9202 0.540359L17.7655 0.572342ZM8.78585 2.40431L8.55946 1.9585L8.78585 2.40431ZM49.7829 0.535559C50.5774 0.53553 51.3701 0.535501 52.1626 0.540359L49.7829 0.535559Z" stroke="black"/>
</g>
<defs>
<filter id="filter0_ddiii" x="-0.923096" y="6" width="73.8462" height="60" filterUnits="userSpaceOnUse" color-interpolation-filters="sRGB">
<feFlood flood-opacity="0" result="BackgroundImageFix"/>
<feColorMatrix in="SourceAlpha" type="matrix" values="0 0 0 0 0 0 0 0 0 0 0 0 0 0 0 0 0 0 127 0"/>
<feOffset dy="2"/>
<feGaussianBlur stdDeviation="2"/>
<feColorMatrix type="matrix" values="0 0 0 0 0 0 0 0 0 0 0 0 0 0 0 0 0 0 0.2 0"/>
<feBlend mode="normal" in2="BackgroundImageFix" result="effect1_dropShadow"/>
<feColorMatrix in="SourceAlpha" type="matrix" values="0 0 0 0 0 0 0 0 0 0 0 0 0 0 0 0 0 0 127 0"/>
<feOffset/>
<feGaussianBlur stdDeviation="6"/>
<feColorMatrix type="matrix" values="0 0 0 0 0.117647 0 0 0 0 0.243137 0 0 0 0 0.494118 0 0 0 0.2 0"/>
<feBlend mode="normal" in2="effect1_dropShadow" result="effect2_dropShadow"/>
<feBlend mode="normal" in="SourceGraphic" in2="effect2_dropShadow" result="shape"/>
<feColorMatrix in="SourceAlpha" type="matrix" values="0 0 0 0 0 0 0 0 0 0 0 0 0 0 0 0 0 0 127 0" result="hardAlpha"/>
<feOffset/>
<feGaussianBlur stdDeviation="4"/>
<feComposite in2="hardAlpha" operator="arithmetic" k2="-1" k3="1"/>
<feColorMatrix type="matrix" values="0 0 0 0 1 0 0 0 0 1 0 0 0 0 1 0 0 0 0.25 0"/>
<feBlend mode="normal" in2="shape" result="effect3_innerShadow"/>
<feColorMatrix in="SourceAlpha" type="matrix" values="0 0 0 0 0 0 0 0 0 0 0 0 0 0 0 0 0 0 127 0" result="hardAlpha"/>
<feOffset dy="2"/>
<feGaussianBlur stdDeviation="1"/>
<feComposite in2="hardAlpha" operator="arithmetic" k2="-1" k3="1"/>
<feColorMatrix type="matrix" values="0 0 0 0 1 0 0 0 0 1 0 0 0 0 1 0 0 0 0.25 0"/>
<feBlend mode="normal" in2="effect3_innerShadow" result="effect4_innerShadow"/>
<feColorMatrix in="SourceAlpha" type="matrix" values="0 0 0 0 0 0 0 0 0 0 0 0 0 0 0 0 0 0 127 0" result="hardAlpha"/>
<feOffset dy="-1"/>
<feGaussianBlur stdDeviation="1"/>
<feComposite in2="hardAlpha" operator="arithmetic" k2="-1" k3="1"/>
<feColorMatrix type="matrix" values="0 0 0 0 0 0 0 0 0 0 0 0 0 0 0 0 0 0 0.25 0"/>
<feBlend mode="normal" in2="effect4_innerShadow" result="effect5_innerShadow"/>
</filter>
<filter id="filter1_ddi" x="7.07697" y="27.165" width="57.8461" height="29.4505" filterUnits="userSpaceOnUse" color-interpolation-filters="sRGB">
<feFlood flood-opacity="0" result="BackgroundImageFix"/>
<feColorMatrix in="SourceAlpha" type="matrix" values="0 0 0 0 0 0 0 0 0 0 0 0 0 0 0 0 0 0 127 0"/>
<feOffset dy="1"/>
<feGaussianBlur stdDeviation="1"/>
<feColorMatrix type="matrix" values="0 0 0 0 0 0 0 0 0 0 0 0 0 0 0 0 0 0 0.8 0"/>
<feBlend mode="normal" in2="BackgroundImageFix" result="effect1_dropShadow"/>
<feColorMatrix in="SourceAlpha" type="matrix" values="0 0 0 0 0 0 0 0 0 0 0 0 0 0 0 0 0 0 127 0"/>
<feOffset/>
<feGaussianBlur stdDeviation="2"/>
<feColorMatrix type="matrix" values="0 0 0 0 0.117647 0 0 0 0 0.243137 0 0 0 0 0.494118 0 0 0 0.9 0"/>
<feBlend mode="normal" in2="effect1_dropShadow" result="effect2_dropShadow"/>
<feBlend mode="normal" in="SourceGraphic" in2="effect2_dropShadow" result="shape"/>
<feColorMatrix in="SourceAlpha" type="matrix" values="0 0 0 0 0 0 0 0 0 0 0 0 0 0 0 0 0 0 127 0" result="hardAlpha"/>
<feOffset/>
<feGaussianBlur stdDeviation="4"/>
<feComposite in2="hardAlpha" operator="arithmetic" k2="-1" k3="1"/>
<feColorMatrix type="matrix" values="0 0 0 0 1 0 0 0 0 1 0 0 0 0 1 0 0 0 0.25 0"/>
<feBlend mode="normal" in2="shape" result="effect3_innerShadow"/>
</filter>
<filter id="filter2_ddi" x="3.0769" y="11.3845" width="65.8461" height="38.2125" filterUnits="userSpaceOnUse" color-interpolation-filters="sRGB">
<feFlood flood-opacity="0" result="BackgroundImageFix"/>
<feColorMatrix in="SourceAlpha" type="matrix" values="0 0 0 0 0 0 0 0 0 0 0 0 0 0 0 0 0 0 127 0"/>
<feOffset dy="1"/>
<feGaussianBlur stdDeviation="1"/>
<feColorMatrix type="matrix" values="0 0 0 0 0 0 0 0 0 0.0753989 0 0 0 0 0.225 0 0 0 0.3 0"/>
<feBlend mode="normal" in2="BackgroundImageFix" result="effect1_dropShadow"/>
<feColorMatrix in="SourceAlpha" type="matrix" values="0 0 0 0 0 0 0 0 0 0 0 0 0 0 0 0 0 0 127 0"/>
<feOffset/>
<feGaussianBlur stdDeviation="4"/>
<feColorMatrix type="matrix" values="0 0 0 0 0.117647 0 0 0 0 0.243137 0 0 0 0 0.494118 0 0 0 0.5 0"/>
<feBlend mode="normal" in2="effect1_dropShadow" result="effect2_dropShadow"/>
<feBlend mode="normal" in="SourceGraphic" in2="effect2_dropShadow" result="shape"/>
<feColorMatrix in="SourceAlpha" type="matrix" values="0 0 0 0 0 0 0 0 0 0 0 0 0 0 0 0 0 0 127 0" result="hardAlpha"/>
<feOffset/>
<feGaussianBlur stdDeviation="4"/>
<feComposite in2="hardAlpha" operator="arithmetic" k2="-1" k3="1"/>
<feColorMatrix type="matrix" values="0 0 0 0 1 0 0 0 0 1 0 0 0 0 1 0 0 0 0.25 0"/>
<feBlend mode="normal" in2="shape" result="effect3_innerShadow"/>
</filter>
<linearGradient id="paint0_linear" x1="36" y1="0" x2="36" y2="72" gradientUnits="userSpaceOnUse">
<stop stop-color="#2E6DEA"/>
<stop offset="1" stop-color="#3ED4F9"/>
</linearGradient>
<linearGradient id="paint1_linear" x1="32.381" y1="20.4" x2="32.381" y2="51.6" gradientUnits="userSpaceOnUse">
<stop stop-color="white"/>
<stop offset="1" stop-color="white" stop-opacity="0.8"/>
</linearGradient>
<linearGradient id="paint2_linear" x1="85.8462" y1="56.1759" x2="85.8462" y2="75.1649" gradientUnits="userSpaceOnUse">
<stop stop-opacity="0"/>
<stop offset="0.140625" stop-opacity="0.256"/>
<stop offset="0.59375" stop-opacity="0.64"/>
<stop offset="0.671875" stop-opacity="0"/>
</linearGradient>
<linearGradient id="paint3_linear" x1="36" y1="52.6155" x2="36" y2="30.3627" gradientUnits="userSpaceOnUse">
<stop stop-color="white"/>
<stop offset="1" stop-color="white" stop-opacity="0.2"/>
</linearGradient>
<linearGradient id="paint4_linear" x1="36" y1="22.945" x2="36" y2="41.3406" gradientUnits="userSpaceOnUse">
<stop stop-opacity="0"/>
<stop offset="1"/>
</linearGradient>
<linearGradient id="paint5_linear" x1="36" y1="19.3845" x2="36" y2="47.868" gradientUnits="userSpaceOnUse">
<stop stop-color="white"/>
<stop offset="1" stop-color="white" stop-opacity="0.2"/>
</linearGradient>
</defs>
</svg>
