<svg width="77" height="81" viewBox="0 0 77 81" fill="none" xmlns="http://www.w3.org/2000/svg">
<path d="M3 32C3 20.7989 3 15.1984 5.17987 10.9202C7.09734 7.15695 10.1569 4.09734 13.9202 2.17987C18.1984 0 23.799 0 35 0H43C54.201 0 59.8016 0 64.0798 2.17987C67.843 4.09734 70.9027 7.15695 72.8201 10.9202C75 15.1984 75 20.799 75 32V40C75 51.201 75 56.8016 72.8201 61.0798C70.9027 64.843 67.843 67.9027 64.0798 69.8201C59.8016 72 54.201 72 43 72H35C23.7989 72 18.1984 72 13.9202 69.8201C10.1569 67.9027 7.09734 64.843 5.17987 61.0798C3 56.8016 3 51.201 3 40V32Z" fill="url(#paint0_linear)"/>
<g filter="url(#filter0_dddi)">
<path d="M39.4186 56.9302C53.9835 56.9302 65.7907 46.9972 65.7907 34.7442C65.7907 22.4911 53.9835 12.5581 39.4186 12.5581C24.8537 12.5581 13.0465 22.4911 13.0465 34.7442C13.0465 42.6726 17.9901 49.6297 25.4255 53.553C25.4387 55.7161 24.9488 58.282 23.093 59.4418C20.2954 61.1904 28.3073 59.1409 31.7526 55.9783C34.1785 56.5973 36.7523 56.9302 39.4186 56.9302Z" fill="url(#paint1_linear)"/>
<path d="M39.4186 56.9302C53.9835 56.9302 65.7907 46.9972 65.7907 34.7442C65.7907 22.4911 53.9835 12.5581 39.4186 12.5581C24.8537 12.5581 13.0465 22.4911 13.0465 34.7442C13.0465 42.6726 17.9901 49.6297 25.4255 53.553C25.4387 55.7161 24.9488 58.282 23.093 59.4418C20.2954 61.1904 28.3073 59.1409 31.7526 55.9783C34.1785 56.5973 36.7523 56.9302 39.4186 56.9302Z" fill="url(#paint2_linear)" fill-opacity="0.6"/>
<path d="M39.4186 56.9302C53.9835 56.9302 65.7907 46.9972 65.7907 34.7442C65.7907 22.4911 53.9835 12.5581 39.4186 12.5581C24.8537 12.5581 13.0465 22.4911 13.0465 34.7442C13.0465 42.6726 17.9901 49.6297 25.4255 53.553C25.4387 55.7161 24.9488 58.282 23.093 59.4418C20.2954 61.1904 28.3073 59.1409 31.7526 55.9783C34.1785 56.5973 36.7523 56.9302 39.4186 56.9302Z" fill="url(#paint3_linear)" fill-opacity="0.6"/>
</g>
<g style="mix-blend-mode:overlay" opacity="0.4" filter="url(#filter1_i)">
<rect x="17.2325" y="15.0698" width="44.3721" height="36.8372" rx="18.4186" fill="#F2F6F7"/>
</g>
<g style="mix-blend-mode:overlay" opacity="0.6" filter="url(#filter2_if)">
<rect x="14.7209" y="24.2791" width="16.7442" height="20.093" rx="8.37209" fill="#F2F6F7"/>
</g>
<defs>
<filter id="filter0_dddi" x="2.04651" y="8.55811" width="74.7442" height="71.525" filterUnits="userSpaceOnUse" color-interpolation-filters="sRGB">
<feFlood flood-opacity="0" result="BackgroundImageFix"/>
<feColorMatrix in="SourceAlpha" type="matrix" values="0 0 0 0 0 0 0 0 0 0 0 0 0 0 0 0 0 0 127 0"/>
<feOffset dy="2"/>
<feGaussianBlur stdDeviation="2.5"/>
<feColorMatrix type="matrix" values="0 0 0 0 0 0 0 0 0 0 0 0 0 0 0 0 0 0 0.14 0"/>
<feBlend mode="normal" in2="BackgroundImageFix" result="effect1_dropShadow"/>
<feColorMatrix in="SourceAlpha" type="matrix" values="0 0 0 0 0 0 0 0 0 0 0 0 0 0 0 0 0 0 127 0"/>
<feOffset dy="9"/>
<feGaussianBlur stdDeviation="5.5"/>
<feColorMatrix type="matrix" values="0 0 0 0 0 0 0 0 0 0 0 0 0 0 0 0 0 0 0.34 0"/>
<feBlend mode="normal" in2="effect1_dropShadow" result="effect2_dropShadow"/>
<feColorMatrix in="SourceAlpha" type="matrix" values="0 0 0 0 0 0 0 0 0 0 0 0 0 0 0 0 0 0 127 0"/>
<feOffset dy="2"/>
<feGaussianBlur stdDeviation="3"/>
<feColorMatrix type="matrix" values="0 0 0 0 0 0 0 0 0 0 0 0 0 0 0 0 0 0 0.25 0"/>
<feBlend mode="normal" in2="effect2_dropShadow" result="effect3_dropShadow"/>
<feBlend mode="normal" in="SourceGraphic" in2="effect3_dropShadow" result="shape"/>
<feColorMatrix in="SourceAlpha" type="matrix" values="0 0 0 0 0 0 0 0 0 0 0 0 0 0 0 0 0 0 127 0" result="hardAlpha"/>
<feOffset dy="-1"/>
<feGaussianBlur stdDeviation="2"/>
<feComposite in2="hardAlpha" operator="arithmetic" k2="-1" k3="1"/>
<feColorMatrix type="matrix" values="0 0 0 0 1 0 0 0 0 1 0 0 0 0 1 0 0 0 0.55 0"/>
<feBlend mode="normal" in2="shape" result="effect4_innerShadow"/>
</filter>
<filter id="filter1_i" x="17.2325" y="10.0698" width="44.3721" height="41.8372" filterUnits="userSpaceOnUse" color-interpolation-filters="sRGB">
<feFlood flood-opacity="0" result="BackgroundImageFix"/>
<feBlend mode="normal" in="SourceGraphic" in2="BackgroundImageFix" result="shape"/>
<feColorMatrix in="SourceAlpha" type="matrix" values="0 0 0 0 0 0 0 0 0 0 0 0 0 0 0 0 0 0 127 0" result="hardAlpha"/>
<feOffset dy="-5"/>
<feGaussianBlur stdDeviation="4"/>
<feComposite in2="hardAlpha" operator="arithmetic" k2="-1" k3="1"/>
<feColorMatrix type="matrix" values="0 0 0 0 0 0 0 0 0 0 0 0 0 0 0 0 0 0 0.55 0"/>
<feBlend mode="normal" in2="shape" result="effect1_innerShadow"/>
</filter>
<filter id="filter2_if" x="0.720947" y="10.2791" width="44.7442" height="48.093" filterUnits="userSpaceOnUse" color-interpolation-filters="sRGB">
<feFlood flood-opacity="0" result="BackgroundImageFix"/>
<feBlend mode="normal" in="SourceGraphic" in2="BackgroundImageFix" result="shape"/>
<feColorMatrix in="SourceAlpha" type="matrix" values="0 0 0 0 0 0 0 0 0 0 0 0 0 0 0 0 0 0 127 0" result="hardAlpha"/>
<feOffset dy="-5"/>
<feGaussianBlur stdDeviation="4"/>
<feComposite in2="hardAlpha" operator="arithmetic" k2="-1" k3="1"/>
<feColorMatrix type="matrix" values="0 0 0 0 0 0 0 0 0 0 0 0 0 0 0 0 0 0 0.55 0"/>
<feBlend mode="normal" in2="shape" result="effect1_innerShadow"/>
<feGaussianBlur stdDeviation="7" result="effect2_foregroundBlur"/>
</filter>
<linearGradient id="paint0_linear" x1="21.4186" y1="64.0465" x2="24.3488" y2="2.93023" gradientUnits="userSpaceOnUse">
<stop stop-color="#12BA2D"/>
<stop offset="1" stop-color="#5FF278"/>
</linearGradient>
<linearGradient id="paint1_linear" x1="40.0319" y1="22.5634" x2="39.3943" y2="60.0827" gradientUnits="userSpaceOnUse">
<stop stop-color="#F2F6F7"/>
<stop offset="0.473473" stop-color="#DADADA"/>
<stop offset="1" stop-color="#BCBCBC"/>
</linearGradient>
<linearGradient id="paint2_linear" x1="40.0319" y1="26.9407" x2="39.3943" y2="60.0827" gradientUnits="userSpaceOnUse">
<stop stop-color="#1DC238" stop-opacity="0"/>
<stop offset="1" stop-color="#22C63D"/>
</linearGradient>
<linearGradient id="paint3_linear" x1="40.0319" y1="43.1992" x2="39.3943" y2="60.0822" gradientUnits="userSpaceOnUse">
<stop offset="0.329728" stop-color="#1DC238" stop-opacity="0"/>
<stop offset="1" stop-color="#22C63D"/>
</linearGradient>
</defs>
</svg>
