<svg width="22" height="20" viewBox="0 0 22 20" fill="none" xmlns="http://www.w3.org/2000/svg">
<path d="M20.0107 1L12.1978 6.78101L13.6506 3.37407L20.0107 1Z" fill="#E17726" stroke="#E17726" stroke-width="0.25" stroke-linecap="round" stroke-linejoin="round"/>
<path d="M1.98914 1L9.7325 6.83496L8.34922 3.37407L1.98914 1Z" fill="#E27625" stroke="#E27625" stroke-width="0.25" stroke-linecap="round" stroke-linejoin="round"/>
<path d="M17.1977 14.4043L15.1189 17.58L19.5702 18.8056L20.8453 14.4737L17.1977 14.4043Z" fill="#E27625" stroke="#E27625" stroke-width="0.25" stroke-linecap="round" stroke-linejoin="round"/>
<path d="M1.16248 14.4737L2.42984 18.8056L6.87341 17.58L4.80231 14.4043L1.16248 14.4737Z" fill="#E27625" stroke="#E27625" stroke-width="0.25" stroke-linecap="round" stroke-linejoin="round"/>
<path d="M6.63366 9.03941L5.39722 10.9048L9.80211 11.1052L9.6553 6.36475L6.63366 9.03941Z" fill="#E27625" stroke="#E27625" stroke-width="0.25" stroke-linecap="round" stroke-linejoin="round"/>
<path d="M15.3661 9.03966L12.2982 6.31104L12.1978 11.1054L16.6026 10.905L15.3661 9.03966Z" fill="#E27625" stroke="#E27625" stroke-width="0.25" stroke-linecap="round" stroke-linejoin="round"/>
<path d="M6.87329 17.5799L9.53939 16.2927L7.24424 14.5044L6.87329 17.5799Z" fill="#E27625" stroke="#E27625" stroke-width="0.25" stroke-linecap="round" stroke-linejoin="round"/>
<path d="M12.4607 16.2927L15.1191 17.5799L14.7558 14.5044L12.4607 16.2927Z" fill="#E27625" stroke="#E27625" stroke-width="0.25" stroke-linecap="round" stroke-linejoin="round"/>
<path d="M15.1191 17.5802L12.4607 16.293L12.677 18.0195L12.6538 18.7518L15.1191 17.5802Z" fill="#D5BFB2" stroke="#D5BFB2" stroke-width="0.25" stroke-linecap="round" stroke-linejoin="round"/>
<path d="M6.87329 17.5802L9.34624 18.7518L9.33077 18.0195L9.53939 16.293L6.87329 17.5802Z" fill="#D5BFB2" stroke="#D5BFB2" stroke-width="0.25" stroke-linecap="round" stroke-linejoin="round"/>
<path d="M9.39257 13.3638L7.18237 12.7164L8.7434 11.9995L9.39257 13.3638Z" fill="#233447" stroke="#233447" stroke-width="0.25" stroke-linecap="round" stroke-linejoin="round"/>
<path d="M12.6073 13.3638L13.2565 11.9995L14.8252 12.7164L12.6073 13.3638Z" fill="#233447" stroke="#233447" stroke-width="0.25" stroke-linecap="round" stroke-linejoin="round"/>
<path d="M6.87318 17.58L7.2596 14.4043L4.80212 14.4737L6.87318 17.58Z" fill="#CC6228" stroke="#CC6228" stroke-width="0.25" stroke-linecap="round" stroke-linejoin="round"/>
<path d="M14.7402 14.4043L15.1189 17.58L17.1977 14.4737L14.7402 14.4043Z" fill="#CC6228" stroke="#CC6228" stroke-width="0.25" stroke-linecap="round" stroke-linejoin="round"/>
<path d="M16.6026 10.9048L12.1978 11.1052L12.6073 13.3637L13.2565 11.9993L14.8252 12.7162L16.6026 10.9048Z" fill="#CC6228" stroke="#CC6228" stroke-width="0.25" stroke-linecap="round" stroke-linejoin="round"/>
<path d="M7.18236 12.7162L8.74339 11.9993L9.39255 13.3637L9.80211 11.1052L5.39722 10.9048L7.18236 12.7162Z" fill="#CC6228" stroke="#CC6228" stroke-width="0.25" stroke-linecap="round" stroke-linejoin="round"/>
<path d="M5.39746 10.9048L7.24444 14.5045L7.18258 12.7162L5.39746 10.9048Z" fill="#E27525" stroke="#E27525" stroke-width="0.25" stroke-linecap="round" stroke-linejoin="round"/>
<path d="M14.8254 12.7162L14.7559 14.5045L16.6028 10.9048L14.8254 12.7162Z" fill="#E27525" stroke="#E27525" stroke-width="0.25" stroke-linecap="round" stroke-linejoin="round"/>
<path d="M9.80232 11.1052L9.3927 13.3637L9.91047 16.0307L10.0264 12.5158L9.80232 11.1052Z" fill="#E27525" stroke="#E27525" stroke-width="0.25" stroke-linecap="round" stroke-linejoin="round"/>
<path d="M12.1979 11.1052L11.9814 12.5081L12.0896 16.0307L12.6074 13.3637L12.1979 11.1052Z" fill="#E27525" stroke="#E27525" stroke-width="0.25" stroke-linecap="round" stroke-linejoin="round"/>
<path d="M12.6072 13.3638L12.0895 16.0307L12.4604 16.2928L14.7556 14.5046L14.8252 12.7163L12.6072 13.3638Z" fill="#F5841F" stroke="#F5841F" stroke-width="0.25" stroke-linecap="round" stroke-linejoin="round"/>
<path d="M7.18237 12.7163L7.24424 14.5046L9.53938 16.2928L9.91033 16.0307L9.39257 13.3638L7.18237 12.7163Z" fill="#F5841F" stroke="#F5841F" stroke-width="0.25" stroke-linecap="round" stroke-linejoin="round"/>
<path d="M12.6538 18.7515L12.6769 18.0192L12.476 17.8496H9.52398L9.33077 18.0192L9.34624 18.7515L6.87329 17.5798L7.73881 18.289L9.49305 19.4991H12.4992L14.2611 18.289L15.1189 17.5798L12.6538 18.7515Z" fill="#C0AC9D" stroke="#C0AC9D" stroke-width="0.25" stroke-linecap="round" stroke-linejoin="round"/>
<path d="M12.4605 16.293L12.0895 16.031H9.91026L9.53936 16.293L9.33069 18.0197L9.5239 17.8501H12.4759L12.6769 18.0197L12.4605 16.293Z" fill="#161616" stroke="#161616" stroke-width="0.25" stroke-linecap="round" stroke-linejoin="round"/>
<path d="M20.3431 7.15869L21 3.96759L20.0108 1L12.4607 6.58834L15.3663 9.03945L19.4699 10.2342L20.374 9.17823L19.9799 8.893L20.6059 8.32265L20.1268 7.95264L20.7527 7.47473L20.3431 7.15869Z" fill="#763E1A" stroke="#763E1A" stroke-width="0.25" stroke-linecap="round" stroke-linejoin="round"/>
<path d="M1 3.96759L1.6646 7.15869L1.23957 7.47473L1.87325 7.95264L1.39412 8.32265L2.02008 8.893L1.62596 9.17823L2.53012 10.2342L6.63367 9.03945L9.53931 6.58834L1.98917 1L1 3.96759Z" fill="#763E1A" stroke="#763E1A" stroke-width="0.25" stroke-linecap="round" stroke-linejoin="round"/>
<path d="M19.4699 10.2343L15.3664 9.03955L16.6028 10.9049L14.7559 14.5045L17.1979 14.4737H20.8454L19.4699 10.2343Z" fill="#F5841F" stroke="#F5841F" stroke-width="0.25" stroke-linecap="round" stroke-linejoin="round"/>
<path d="M6.6338 9.03955L2.53031 10.2343L1.16248 14.4737H4.80231L7.2443 14.5045L5.39736 10.9049L6.6338 9.03955Z" fill="#F5841F" stroke="#F5841F" stroke-width="0.25" stroke-linecap="round" stroke-linejoin="round"/>
<path d="M12.1979 11.1054L12.4606 6.58848L13.6507 3.37427H8.34937L9.53944 6.58848L9.80219 11.1054L9.90266 12.5237L9.91039 16.0308H12.0897L12.0974 12.5237L12.1979 11.1054Z" fill="#F5841F" stroke="#F5841F" stroke-width="0.25" stroke-linecap="round" stroke-linejoin="round"/>
</svg>
