<svg width="62" height="57" viewBox="0 0 62 57" fill="none" xmlns="http://www.w3.org/2000/svg">
<g opacity="0.7">
<path d="M58.0321 1L34.5933 18.3431L38.9519 8.12224L58.0321 1Z" fill="#E17726" stroke="#E17726" stroke-width="0.25" stroke-linecap="round" stroke-linejoin="round"/>
<path d="M3.96777 1L27.198 18.505L23.0481 8.12223L3.96777 1Z" fill="#E27625" stroke="#E27625" stroke-width="0.25" stroke-linecap="round" stroke-linejoin="round"/>
<path d="M49.5928 41.2129L43.3564 50.7401L56.7103 54.4168L60.5357 41.4212L49.5928 41.2129Z" fill="#E27625" stroke="#E27625" stroke-width="0.25" stroke-linecap="round" stroke-linejoin="round"/>
<path d="M1.48755 41.4212L5.28967 54.4168L18.6204 50.7401L12.4071 41.2129L1.48755 41.4212Z" fill="#E27625" stroke="#E27625" stroke-width="0.25" stroke-linecap="round" stroke-linejoin="round"/>
<path d="M17.9005 25.1173L14.1912 30.7134L27.4059 31.3146L26.9655 17.0933L17.9005 25.1173Z" fill="#E27625" stroke="#E27625" stroke-width="0.25" stroke-linecap="round" stroke-linejoin="round"/>
<path d="M44.0985 25.12L34.8947 16.9341L34.5933 31.3173L47.8079 30.7161L44.0985 25.12Z" fill="#E27625" stroke="#E27625" stroke-width="0.25" stroke-linecap="round" stroke-linejoin="round"/>
<path d="M18.6204 50.7406L26.6187 46.879L19.7332 41.5142L18.6204 50.7406Z" fill="#E27625" stroke="#E27625" stroke-width="0.25" stroke-linecap="round" stroke-linejoin="round"/>
<path d="M35.3818 46.879L43.357 50.7406L42.2673 41.5142L35.3818 46.879Z" fill="#E27625" stroke="#E27625" stroke-width="0.25" stroke-linecap="round" stroke-linejoin="round"/>
<path d="M43.357 50.7406L35.3818 46.8789L36.0309 52.0587L35.9613 54.2555L43.357 50.7406Z" fill="#D5BFB2" stroke="#D5BFB2" stroke-width="0.25" stroke-linecap="round" stroke-linejoin="round"/>
<path d="M18.6204 50.7406L26.0392 54.2555L25.9928 52.0587L26.6187 46.8789L18.6204 50.7406Z" fill="#D5BFB2" stroke="#D5BFB2" stroke-width="0.25" stroke-linecap="round" stroke-linejoin="round"/>
<path d="M26.1775 38.0905L19.5469 36.1482L24.23 33.9976L26.1775 38.0905Z" fill="#233447" stroke="#233447" stroke-width="0.25" stroke-linecap="round" stroke-linejoin="round"/>
<path d="M35.8223 38.0905L37.7698 33.9976L42.4761 36.1482L35.8223 38.0905Z" fill="#233447" stroke="#233447" stroke-width="0.25" stroke-linecap="round" stroke-linejoin="round"/>
<path d="M18.6199 50.7401L19.7792 41.2129L12.4067 41.4212L18.6199 50.7401Z" fill="#CC6228" stroke="#CC6228" stroke-width="0.25" stroke-linecap="round" stroke-linejoin="round"/>
<path d="M42.2209 41.2129L43.357 50.7401L49.5934 41.4212L42.2209 41.2129Z" fill="#CC6228" stroke="#CC6228" stroke-width="0.25" stroke-linecap="round" stroke-linejoin="round"/>
<path d="M47.8079 30.7153L34.5933 31.3166L35.8219 38.0921L37.7695 33.999L42.4758 36.1496L47.8079 30.7153Z" fill="#CC6228" stroke="#CC6228" stroke-width="0.25" stroke-linecap="round" stroke-linejoin="round"/>
<path d="M19.5466 36.1496L24.2297 33.999L26.1772 38.0921L27.4059 31.3166L14.1912 30.7153L19.5466 36.1496Z" fill="#CC6228" stroke="#CC6228" stroke-width="0.25" stroke-linecap="round" stroke-linejoin="round"/>
<path d="M14.1924 30.7153L19.7333 41.5144L19.5477 36.1496L14.1924 30.7153Z" fill="#E27525" stroke="#E27525" stroke-width="0.25" stroke-linecap="round" stroke-linejoin="round"/>
<path d="M42.4764 36.1496L42.2678 41.5144L47.8088 30.7153L42.4764 36.1496Z" fill="#E27525" stroke="#E27525" stroke-width="0.25" stroke-linecap="round" stroke-linejoin="round"/>
<path d="M27.4078 31.314L26.179 38.0895L27.7323 46.0903L28.0801 35.5457L27.4078 31.314Z" fill="#E27525" stroke="#E27525" stroke-width="0.25" stroke-linecap="round" stroke-linejoin="round"/>
<path d="M34.5936 31.314L33.9443 35.5227L34.269 46.0903L35.8222 38.0895L34.5936 31.314Z" fill="#E27525" stroke="#E27525" stroke-width="0.25" stroke-linecap="round" stroke-linejoin="round"/>
<path d="M35.8219 38.0905L34.2686 46.0913L35.3814 46.8776L42.2671 41.5128L42.4757 36.1479L35.8219 38.0905Z" fill="#F5841F" stroke="#F5841F" stroke-width="0.25" stroke-linecap="round" stroke-linejoin="round"/>
<path d="M19.5469 36.1479L19.7325 41.5128L26.6179 46.8776L27.7308 46.0913L26.1775 38.0905L19.5469 36.1479Z" fill="#F5841F" stroke="#F5841F" stroke-width="0.25" stroke-linecap="round" stroke-linejoin="round"/>
<path d="M35.9619 54.2551L36.0313 52.0583L35.4286 51.5495H26.5725L25.9928 52.0583L26.0392 54.2551L18.6204 50.7402L21.2169 52.8676L26.4797 56.4982H35.498L40.784 52.8676L43.3573 50.7402L35.9619 54.2551Z" fill="#C0AC9D" stroke="#C0AC9D" stroke-width="0.25" stroke-linecap="round" stroke-linejoin="round"/>
<path d="M35.3811 46.8782L34.2682 46.092H27.7304L26.6177 46.8782L25.9917 52.0581L26.5713 51.5493H35.4275L36.0303 52.0581L35.3811 46.8782Z" fill="#161616" stroke="#161616" stroke-width="0.25" stroke-linecap="round" stroke-linejoin="round"/>
<path d="M59.0292 19.4761L60.9999 9.90279L58.0323 1L35.3818 17.7651L44.0988 25.1184L56.4094 28.7028L59.122 25.5348L57.9397 24.6791L59.8174 22.968L58.3801 21.858L60.258 20.4243L59.0292 19.4761Z" fill="#763E1A" stroke="#763E1A" stroke-width="0.25" stroke-linecap="round" stroke-linejoin="round"/>
<path d="M1 9.90279L2.99381 19.4761L1.7187 20.4243L3.61977 21.858L2.18237 22.968L4.06025 24.6791L2.87788 25.5348L5.59039 28.7028L17.9011 25.1184L26.618 17.7651L3.96753 1L1 9.90279Z" fill="#763E1A" stroke="#763E1A" stroke-width="0.25" stroke-linecap="round" stroke-linejoin="round"/>
<path d="M56.4099 28.7038L44.0993 25.1196L47.8088 30.7157L42.2678 41.5146L49.5939 41.4221H60.5366L56.4099 28.7038Z" fill="#F5841F" stroke="#F5841F" stroke-width="0.25" stroke-linecap="round" stroke-linejoin="round"/>
<path d="M17.9016 25.1196L5.59107 28.7038L1.48755 41.4221H12.4071L19.7331 41.5146L14.1923 30.7157L17.9016 25.1196Z" fill="#F5841F" stroke="#F5841F" stroke-width="0.25" stroke-linecap="round" stroke-linejoin="round"/>
<path d="M34.5934 31.3156L35.3816 17.7647L38.9519 8.12207H23.0479L26.6181 17.7647L27.4063 31.3156L27.7078 35.5704L27.731 46.0919H34.2688L34.292 35.5704L34.5934 31.3156Z" fill="#F5841F" stroke="#F5841F" stroke-width="0.25" stroke-linecap="round" stroke-linejoin="round"/>
</g>
</svg>
