<svg width="18" height="20" viewBox="0 0 18 20" fill="none" xmlns="http://www.w3.org/2000/svg">
<path fill-rule="evenodd" clip-rule="evenodd" d="M8.38452 0.224306C8.74261 -0.0747733 9.26341 -0.0747679 9.62149 0.224318C12.2442 2.41486 15.2347 2.3979 16.3923 2.39134C16.45 2.39101 16.5032 2.39071 16.5516 2.39071C16.81 2.39071 17.0576 2.49437 17.239 2.67847C17.4203 2.86257 17.5202 3.11171 17.5163 3.37009C17.4615 7.00047 17.316 9.59153 17.0305 11.4905C16.7451 13.3884 16.3075 14.6891 15.6024 15.669C14.8923 16.6559 13.9796 17.2162 13.0078 17.7533C12.8395 17.8463 12.6678 17.9395 12.492 18.0348C11.639 18.4975 10.6908 19.0118 9.56538 19.8191C9.22924 20.0603 8.77678 20.0603 8.44063 19.8192C7.31627 19.0126 6.36934 18.4986 5.51761 18.0362C5.341 17.9403 5.16848 17.8466 4.99933 17.7531C4.02828 17.2159 3.11683 16.6554 2.40811 15.6681C1.70457 14.6881 1.26851 13.3875 0.984222 11.49C0.699732 9.59125 0.554889 7.00036 0.50011 3.37009C0.496211 3.11171 0.596123 2.86257 0.777464 2.67847C0.958804 2.49437 1.20642 2.39071 1.46483 2.39071C1.51264 2.39071 1.56531 2.39101 1.62257 2.39134C2.77061 2.39791 5.76152 2.41503 8.38452 0.224306ZM2.44698 4.31435C2.51174 7.40855 2.6526 9.60245 2.89258 11.2041C3.15718 12.9702 3.52999 13.922 3.97565 14.5428C4.41613 15.1564 4.99423 15.545 5.93343 16.0646C6.0864 16.1492 6.24775 16.2367 6.41719 16.3286C7.13955 16.7203 8.009 17.1918 9.003 17.8605C9.99838 17.1909 10.8692 16.7191 11.5927 16.327C11.7614 16.2356 11.9221 16.1486 12.0745 16.0644C13.0149 15.5447 13.5944 15.1559 14.0361 14.542C14.4828 13.9211 14.8568 12.9693 15.1223 11.2036C15.3631 9.60218 15.5046 7.40851 15.5694 4.31453C14.0841 4.26666 11.4682 3.95997 9.00299 2.18533C6.54069 3.95782 3.9286 4.2659 2.44698 4.31435Z" fill="#3375BB"/>
</svg>
