<svg width="53" height="50" viewBox="0 0 53 50" fill="none" xmlns="http://www.w3.org/2000/svg">
<path d="M0.5 22.4C0.5 18.4714 0.500389 15.555 0.689078 13.2455C0.87729 10.9419 1.25036 9.28628 1.97141 7.87113C3.2657 5.33094 5.33094 3.2657 7.87113 1.97141C9.28628 1.25036 10.9419 0.87729 13.2455 0.689078C15.555 0.500389 18.4714 0.5 22.4 0.5H30.6C34.5286 0.5 37.445 0.500389 39.7545 0.689078C42.0581 0.87729 43.7137 1.25036 45.1289 1.97141C47.6691 3.2657 49.7343 5.33094 51.0286 7.87113C51.7496 9.28628 52.1227 10.9419 52.3109 13.2455C52.4996 15.555 52.5 18.4714 52.5 22.4V27.6C52.5 31.5286 52.4996 34.445 52.3109 36.7545C52.1227 39.0581 51.7496 40.7137 51.0286 42.1289C49.7343 44.6691 47.6691 46.7343 45.1289 48.0286C43.7137 48.7496 42.0581 49.1227 39.7545 49.3109C37.445 49.4996 34.5286 49.5 30.6 49.5H22.4C18.4714 49.5 15.555 49.4996 13.2455 49.3109C10.9419 49.1227 9.28628 48.7496 7.87113 48.0286C5.33094 46.7343 3.2657 44.6691 1.97141 42.1289C1.25036 40.7137 0.87729 39.0581 0.689078 36.7545C0.500389 34.445 0.5 31.5286 0.5 27.6V22.4Z" stroke="#CCCCCC"/>
<g clip-path="url(#clip0)">
<rect x="16" y="25" width="22" height="2" fill="#C4C4C4"/>
</g>
<rect x="28" y="15" width="22" height="2" transform="rotate(90 28 15)" fill="#C4C4C4"/>
<defs>
<clipPath id="clip0">
<rect width="22" height="2" fill="white" transform="translate(16 25)"/>
</clipPath>
</defs>
</svg>
