<svg width="15" height="13" viewBox="0 0 15 13" fill="none" xmlns="http://www.w3.org/2000/svg">
<path d="M1.5 0C0.671573 0 0 0.671573 0 1.5V3.5C0 4.32843 0.671573 5 1.5 5H3.5C4.32843 5 5 4.32843 5 3.5V1.5C5 0.671573 4.32843 0 3.5 0H1.5Z" fill="white"/>
<path d="M7 3H15V2H7V3Z" fill="white"/>
<path d="M1.5 8C0.671573 8 0 8.67157 0 9.5V11.5C0 12.3284 0.671573 13 1.5 13H3.5C4.32843 13 5 12.3284 5 11.5V9.5C5 8.67157 4.32843 8 3.5 8H1.5Z" fill="white"/>
<path d="M7 11H15V10H7V11Z" fill="white"/>
</svg>
